<?xml version="1.0" standalone="no"?><!DOCTYPE svg PUBLIC "-//W3C//DTD SVG 1.1//EN" "http://www.w3.org/Graphics/SVG/1.1/DTD/svg11.dtd"><svg t="1743163119170" class="icon" viewBox="0 0 1024 1024" version="1.1" xmlns="http://www.w3.org/2000/svg" p-id="3579" xmlns:xlink="http://www.w3.org/1999/xlink" width="200" height="200"><path d="M887.395274 610.5362c-11.661597-39.856753-39.072901-64.958454-79.017658-76.048023-6.763031-1.876744-10.314926-4.488221-11.171434-12.181437-9.251711-83.055624-48.328705-148.910495-117.176746-195.938578-69.427232-47.424102-146.663314-59.987233-228.79694-46.113247-121.343649 20.4958-212.852806 114.435309-229.045603 236.093113-1.600451 12.027941-5.988388 16.278755-17.129122 19.851117-42.252313 13.547551-69.37095 42.626843-76.522838 86.541005-7.154957 43.920302 7.691169 80.84119 44.053332 107.735723 23.295566 17.23043 50.088792 22.714328 76.214822 21.332864 8.272407 0 14.165628 0.039909 20.057825-0.008186 11.236925-0.094144 11.930727-0.721431 11.945053-12.166087 0.055259-48.910966-0.064468-97.819886 0.115634-146.728806 0.066515-18.539238-0.271176-37.058011 1.731434-55.602366 13.419637-124.268258 131.24209-217.84347 254.891248-200.50457 101.468996 14.230096 186.002274 90.186022 198.577684 202.427362 2.27481 20.304442 1.463328 40.606837 1.566682 60.910255 0.237407 46.551222 0.071631 93.104491 0.130983 139.656737 0.013303 11.32493 0.700965 11.946077 12.102642 12.001335 10.900258 0.053212 21.805632 0.176009 32.702819-0.036839C855.899956 750.3362 907.951449 680.792311 887.395274 610.5362z" p-id="3580" fill="#ffffff"></path><path d="M677.527452 552.572044c-7.648191 0.337691-15.322987 0.226151-22.980387 0.057305-6.433526-0.140193-9.172917 2.866281-8.837272 9.147334 0.140193 2.645247-0.00921 5.302773-0.00921 7.954159 0.007163 36.838 0.055259 73.67293 0 110.50786-0.01535 11.20111-0.833995 11.960403-12.173251 12.019755-13.850449 0.072655-27.704992 0.176009-41.550325-0.077771-12.027941-0.218988-17.702174-5.710049-18.795065-17.7165-0.344854-3.804652-0.233314-7.65433-0.234337-11.484565-0.01842-33.299407-0.134053-66.600861 0.076748-99.898221 0.049119-7.514137-2.702552-10.881838-10.364045-10.507308-6.760984 0.328481-13.552667-0.00307-20.329001 0.070608-10.709923 0.118704-11.524474 0.874927-11.535731 11.716856-0.041956 38.014802-0.080841 76.029604 0.035816 114.044406 0.106424 35.254945 20.029172 55.32812 55.4458 55.626925 29.761837 0.249687 59.526745 0.094144 89.289606 0.045025 11.593036-0.019443 12.247952-0.716314 12.271488-12.815887 0.048095-25.932626 0.014326-51.864228 0.023536-77.796854 0-26.816762-0.148379-53.634548 0.094144-80.44824C688.025551 555.442418 685.130617 552.23333 677.527452 552.572044z" p-id="3581" fill="#ffffff"></path><path d="M497.836931 451.351712c-8.226359 0.424672-16.493649 0.046049-24.744567 0.093121-12.462846 0.070608-13.176091 0.719384-13.201673 12.891611-0.055259 25.632797-0.217964 51.269687 0.085958 76.897368 0.099261 8.262174-2.761903 11.6749-11.288091 11.510148-13.824867-0.261966-27.652803-0.271176-41.488927 1.085728-44.98454 4.409426-80.704067 41.456181-81.762165 85.270059-1.167592 48.178279 31.05632 87.564311 77.469396 93.400227 31.064506 3.904936 62.388932 0.923022 93.588515 1.542122 12.082176 0.239454 12.561084-0.430812 12.57234-12.378935 0.037862-42.72201 0.014326-85.444021 0.014326-128.165008 0.013303 0 0.026606 0 0.040932 0 0-21.803585 0-43.606147 0-65.409732s-0.25378-43.61024 0.125867-65.406662C509.394151 454.217992 506.200412 450.919876 497.836931 451.351712zM459.959252 612.372012c-0.336668 10.593266-0.082888 21.205974-0.082888 31.810496-0.020466 0-0.037862 0-0.057305 0 0 11.192923-0.032746 22.384823 0.016373 33.577746 0.021489 5.316076-2.286066 8.475022-7.806803 8.506744-13.82896 0.079818-27.722388 1.331321-41.459251-0.821715-22.569018-3.536546-38.508036-22.422685-37.214577-43.535539 1.423419-23.243377 19.201318-40.012296 43.129286-40.466644 10.895141-0.206708 21.808702 0.248663 32.692586-0.149403C457.326285 600.994893 460.205868 604.568279 459.959252 612.372012z" p-id="3582" fill="#ffffff"></path></svg>